<mxfile host="app.diagrams.net" modified="2022-10-12T12:23:23.213Z" agent="5.0 (Windows NT 10.0; Win64; x64) AppleWebKit/537.36 (KHTML, like Gecko) Chrome/105.0.0.0 Safari/537.36" etag="WHqJHH6sMgW3yCFRr9fH" version="20.4.0" type="github">
  <diagram name="Page-1" id="9f46799a-70d6-7492-0946-bef42562c5a5">
    <mxGraphModel dx="2138" dy="1429" grid="1" gridSize="10" guides="1" tooltips="1" connect="1" arrows="1" fold="1" page="1" pageScale="1" pageWidth="1100" pageHeight="850" math="0" shadow="0">
      <root>
        <mxCell id="0" />
        <mxCell id="1" parent="0" />
        <mxCell id="78961159f06e98e8-17" value="Main" style="swimlane;html=1;fontStyle=1;align=center;verticalAlign=top;childLayout=stackLayout;horizontal=1;startSize=26;horizontalStack=0;resizeParent=1;resizeLast=0;collapsible=1;marginBottom=0;swimlaneFillColor=#ffffff;rounded=0;shadow=0;comic=0;labelBackgroundColor=none;strokeWidth=1;fillColor=none;fontFamily=Verdana;fontSize=12;strokeColor=#006658;fontColor=#5C5C5C;" parent="1" vertex="1">
          <mxGeometry x="170" y="-30" width="160" height="70" as="geometry" />
        </mxCell>
        <mxCell id="78961159f06e98e8-19" value="" style="line;html=1;strokeWidth=1;fillColor=none;align=left;verticalAlign=middle;spacingTop=-1;spacingLeft=3;spacingRight=3;rotatable=0;labelPosition=right;points=[];portConstraint=eastwest;strokeColor=#006658;fontColor=#5C5C5C;" parent="78961159f06e98e8-17" vertex="1">
          <mxGeometry y="26" width="160" height="8" as="geometry" />
        </mxCell>
        <mxCell id="78961159f06e98e8-20" value="onCreate" style="text;html=1;strokeColor=none;fillColor=none;align=left;verticalAlign=top;spacingLeft=4;spacingRight=4;whiteSpace=wrap;overflow=hidden;rotatable=0;points=[[0,0.5],[1,0.5]];portConstraint=eastwest;fontStyle=1;fontColor=#5C5C5C;" parent="78961159f06e98e8-17" vertex="1">
          <mxGeometry y="34" width="160" height="26" as="geometry" />
        </mxCell>
        <mxCell id="78961159f06e98e8-30" value="лил░ UI&lt;br&gt;&lt;br&gt;GameFragment&lt;br&gt;&lt;br&gt;" style="swimlane;html=1;fontStyle=1;align=center;verticalAlign=top;childLayout=stackLayout;horizontal=1;startSize=60;horizontalStack=0;resizeParent=1;resizeLast=0;collapsible=1;marginBottom=0;swimlaneFillColor=#ffffff;rounded=0;shadow=0;comic=0;labelBackgroundColor=none;strokeWidth=1;fillColor=default;fontFamily=Verdana;fontSize=12;strokeColor=#006658;fontColor=#5C5C5C;" parent="1" vertex="1">
          <mxGeometry x="470" y="-60" width="340" height="460" as="geometry">
            <mxRectangle x="480" y="-50" width="140" height="70" as="alternateBounds" />
          </mxGeometry>
        </mxCell>
        <mxCell id="78961159f06e98e8-32" value="&lt;span style=&quot;color: rgba(0, 0, 0, 0); font-family: monospace; font-size: 0px;&quot;&gt;%3CmxGraphModel%3E%3Croot%3E%3CmxCell%20id%3D%220%22%2F%3E%3CmxCell%20id%3D%221%22%20parent%3D%220%22%2F%3E%3CmxCell%20id%3D%222%22%20value%3D%22%26lt%3Bpre%20style%3D%26quot%3Bbackground-color%3A%23ffffff%3Bcolor%3A%23000000%3Bfont-family%3A&#39;JetBrains%20Mono&#39;%2Cmonospace%3Bfont-size%3A9%2C8pt%3B%26quot%3B%26gt%3B%26lt%3Bspan%20style%3D%26quot%3Bcolor%3A%23000080%3Bfont-weight%3Abold%3B%26quot%3B%26gt%3Bprivate%20lateinit%20var%20%26lt%3B%2Fspan%26gt%3B%26lt%3Bspan%20style%3D%26quot%3Bcolor%3A%23660e7a%3Bfont-weight%3Abold%3B%26quot%3B%26gt%3Bbinding%26lt%3B%2Fspan%26gt%3B%3A%20GameFragmentBinding%26lt%3B%2Fpre%26gt%3B%22%20style%3D%22text%3Bhtml%3D1%3BstrokeColor%3Dnone%3BfillColor%3Dnone%3Balign%3Dleft%3BverticalAlign%3Dtop%3BspacingLeft%3D4%3BspacingRight%3D4%3BwhiteSpace%3Dwrap%3Boverflow%3Dhidden%3Brotatable%3D0%3Bpoints%3D%5B%5B0%2C0.5%5D%2C%5B1%2C0.5%5D%5D%3BportConstraint%3Deastwest%3B%22%20vertex%3D%221%22%20parent%3D%221%22%3E%3CmxGeometry%20x%3D%22320%22%20y%3D%2296%22%20width%3D%22160%22%20height%3D%2234%22%20as%3D%22geometry%22%2F%3E%3C%2FmxCell%3E%3C%2Froot%3E%3C%2FmxGraphModel%3E&lt;/span&gt;&lt;span style=&quot;color: rgba(0, 0, 0, 0); font-family: monospace; font-size: 0px;&quot;&gt;%3CmxGraphModel%3E%3Croot%3E%3CmxCell%20id%3D%220%22%2F%3E%3CmxCell%20id%3D%221%22%20parent%3D%220%22%2F%3E%3CmxCell%20id%3D%222%22%20value%3D%22%26lt%3Bpre%20style%3D%26quot%3Bbackground-color%3A%23ffffff%3Bcolor%3A%23000000%3Bfont-family%3A&#39;JetBrains%20Mono&#39;%2Cmonospace%3Bfont-size%3A9%2C8pt%3B%26quot%3B%26gt%3B%26lt%3Bspan%20style%3D%26quot%3Bcolor%3A%23000080%3Bfont-weight%3Abold%3B%26quot%3B%26gt%3Bprivate%20lateinit%20var%20%26lt%3B%2Fspan%26gt%3B%26lt%3Bspan%20style%3D%26quot%3Bcolor%3A%23660e7a%3Bfont-weight%3Abold%3B%26quot%3B%26gt%3Bbinding%26lt%3B%2Fspan%26gt%3B%3A%20GameFragmentBinding%26lt%3B%2Fpre%26gt%3B%22%20style%3D%22text%3Bhtml%3D1%3BstrokeColor%3Dnone%3BfillColor%3Dnone%3Balign%3Dleft%3BverticalAlign%3Dtop%3BspacingLeft%3D4%3BspacingRight%3D4%3BwhiteSpace%3Dwrap%3Boverflow%3Dhidden%3Brotatable%3D0%3Bpoints%3D%5B%5B0%2C0.5%5D%2C%5B1%2C0.5%5D%5D%3BportConstraint%3Deastwest%3B%22%20vertex%3D%221%22%20parent%3D%221%22%3E%3CmxGeometry%20x%3D%22320%22%20y%3D%2296%22%20width%3D%22160%22%20height%3D%2234%22%20as%3D%22geometry%22%2F%3E%3C%2FmxCell%3E%3C%2Froot%3E%3C%2FmxGraphModel%3E&lt;/span&gt;&lt;span style=&quot;color: rgba(0, 0, 0, 0); font-family: monospace; font-size: 0px;&quot;&gt;%3CmxGraphModel%3E%3Croot%3E%3CmxCell%20id%3D%220%22%2F%3E%3CmxCell%20id%3D%221%22%20parent%3D%220%22%2F%3E%3CmxCell%20id%3D%222%22%20value%3D%22%26lt%3Bpre%20style%3D%26quot%3Bbackground-color%3A%23ffffff%3Bcolor%3A%23000000%3Bfont-family%3A&#39;JetBrains%20Mono&#39;%2Cmonospace%3Bfont-size%3A9%2C8pt%3B%26quot%3B%26gt%3B%26lt%3Bspan%20style%3D%26quot%3Bcolor%3A%23000080%3Bfont-weight%3Abold%3B%26quot%3B%26gt%3Bprivate%20lateinit%20var%20%26lt%3B%2Fspan%26gt%3B%26lt%3Bspan%20style%3D%26quot%3Bcolor%3A%23660e7a%3Bfont-weight%3Abold%3B%26quot%3B%26gt%3Bbinding%26lt%3B%2Fspan%26gt%3B%3A%20GameFragmentBinding%26lt%3B%2Fpre%26gt%3B%22%20style%3D%22text%3Bhtml%3D1%3BstrokeColor%3Dnone%3BfillColor%3Dnone%3Balign%3Dleft%3BverticalAlign%3Dtop%3BspacingLeft%3D4%3BspacingRight%3D4%3BwhiteSpace%3Dwrap%3Boverflow%3Dhidden%3Brotatable%3D0%3Bpoints%3D%5B%5B0%2C0.5%5D%2C%5B1%2C0.5%5D%5D%3BportConstraint%3Deastwest%3B%22%20vertex%3D%221%22%20parent%3D%221%22%3E%3CmxGeometry%20x%3D%22320%22%20y%3D%2296%22%20width%3D%22160%22%20height%3D%2234%22%20as%3D%22geometry%22%2F%3E%3C%2FmxCell%3E%3C%2Froot%3E%3C%2FmxGraphModel%3E&lt;/span&gt;" style="text;html=1;strokeColor=none;fillColor=none;align=left;verticalAlign=top;spacingLeft=4;spacingRight=4;whiteSpace=wrap;overflow=hidden;rotatable=0;points=[[0,0.5],[1,0.5]];portConstraint=eastwest;fontColor=#5C5C5C;" parent="78961159f06e98e8-30" vertex="1">
          <mxGeometry y="60" width="340" height="26" as="geometry" />
        </mxCell>
        <mxCell id="78961159f06e98e8-33" value="&lt;pre style=&quot;background-color: rgb(255, 255, 255); font-family: &amp;quot;JetBrains Mono&amp;quot;, monospace; font-size: 13px;&quot;&gt;&lt;font color=&quot;#ff0000&quot;&gt;private val viewModel: &lt;font style=&quot;font-size: 13px;&quot;&gt;GameViewModel &lt;/font&gt;by &lt;span style=&quot;font-style: italic;&quot;&gt;viewModels&lt;/span&gt;()&lt;/font&gt;&lt;/pre&gt;" style="text;html=1;strokeColor=none;fillColor=none;align=left;verticalAlign=top;spacingLeft=4;spacingRight=4;whiteSpace=wrap;overflow=hidden;rotatable=0;points=[[0,0.5],[1,0.5]];portConstraint=eastwest;fontColor=#5C5C5C;" parent="78961159f06e98e8-30" vertex="1">
          <mxGeometry y="86" width="340" height="40" as="geometry" />
        </mxCell>
        <mxCell id="uO2hVA76GYjicHTjwSfB-16" value="&lt;pre style=&quot;background-color:#ffffff;color:#000000;font-family:&#39;JetBrains Mono&#39;,monospace;font-size:9,8pt;&quot;&gt;&lt;span style=&quot;color:#000080;font-weight:bold;&quot;&gt;private lateinit var &lt;/span&gt;&lt;span style=&quot;color:#660e7a;font-weight:bold;&quot;&gt;binding&lt;/span&gt;: GameFragmentBinding&lt;/pre&gt;" style="text;html=1;strokeColor=none;fillColor=none;align=left;verticalAlign=top;spacingLeft=4;spacingRight=4;whiteSpace=wrap;overflow=hidden;rotatable=0;points=[[0,0.5],[1,0.5]];portConstraint=eastwest;fontColor=#5C5C5C;" parent="78961159f06e98e8-30" vertex="1">
          <mxGeometry y="126" width="340" height="34" as="geometry" />
        </mxCell>
        <mxCell id="78961159f06e98e8-38" value="" style="line;html=1;strokeWidth=1;fillColor=none;align=left;verticalAlign=middle;spacingTop=-1;spacingLeft=3;spacingRight=3;rotatable=0;labelPosition=right;points=[];portConstraint=eastwest;strokeColor=#006658;fontColor=#5C5C5C;" parent="78961159f06e98e8-30" vertex="1">
          <mxGeometry y="160" width="340" height="34" as="geometry" />
        </mxCell>
        <mxCell id="78961159f06e98e8-39" value="&lt;pre style=&quot;background-color: rgb(255, 255, 255); font-family: &amp;quot;JetBrains Mono&amp;quot;, monospace;&quot;&gt;&lt;span style=&quot;color: rgb(0, 0, 0);&quot;&gt;&lt;span style=&quot;color:#000080;font-weight:bold;&quot;&gt;override fun &lt;/span&gt;onCreateView(&lt;br&gt;    inflater: LayoutInflater, &lt;/span&gt;&lt;font color=&quot;#0000ff&quot;&gt;container: ViewGroup?&lt;/font&gt;&lt;font color=&quot;#000000&quot;&gt;,&lt;br&gt;    &lt;/font&gt;&lt;font color=&quot;#ff66ff&quot;&gt;savedInstanceState: Bundle?&lt;/font&gt;&lt;font color=&quot;#000000&quot;&gt;&lt;br&gt;): View&lt;/font&gt;&lt;/pre&gt;" style="text;html=1;strokeColor=#006658;fillColor=none;align=left;verticalAlign=top;spacingLeft=4;spacingRight=4;whiteSpace=wrap;overflow=hidden;rotatable=0;points=[[0,0.5],[1,0.5]];portConstraint=eastwest;fontColor=#5C5C5C;dashed=1;" parent="78961159f06e98e8-30" vertex="1">
          <mxGeometry y="194" width="340" height="100" as="geometry" />
        </mxCell>
        <mxCell id="78961159f06e98e8-40" value="&lt;pre style=&quot;background-color:#ffffff;color:#000000;font-family:&#39;JetBrains Mono&#39;,monospace;font-size:9,8pt;&quot;&gt;&lt;span style=&quot;color:#000080;font-weight:bold;&quot;&gt;override fun &lt;/span&gt;onViewCreated(view: View,&lt;/pre&gt;&lt;pre style=&quot;background-color: rgb(255, 255, 255); font-family: &amp;quot;JetBrains Mono&amp;quot;, monospace;&quot;&gt;&lt;span style=&quot;color: rgb(0, 0, 0);&quot;&gt; &lt;/span&gt;&lt;font color=&quot;#ff66ff&quot;&gt;savedInstanceState: Bundle?&lt;/font&gt;&lt;font color=&quot;#000000&quot;&gt;)&lt;/font&gt;&lt;/pre&gt;&lt;pre style=&quot;background-color: rgb(255, 255, 255); font-family: &amp;quot;JetBrains Mono&amp;quot;, monospace;&quot;&gt;&lt;font color=&quot;#00cc00&quot;&gt;updateNextWordOnScreen() лЙл▒лйлЙл▓лИЛѓЛї Лѓлхл║ЛЂЛѓлЙл▓лЙлх л┐лЙл╗лх&lt;/font&gt;&lt;/pre&gt;&lt;pre style=&quot;background-color: rgb(255, 255, 255); font-family: &amp;quot;JetBrains Mono&amp;quot;, monospace;&quot;&gt;binding&lt;span style=&quot;color: rgb(0, 0, 0);&quot;&gt;.&lt;/span&gt;&lt;span style=&quot;color: rgb(102, 14, 122); font-weight: bold;&quot;&gt;submit&lt;/span&gt;&lt;span style=&quot;color: rgb(0, 0, 0);&quot;&gt;.setOnClickListener &lt;/span&gt;&lt;span style=&quot;color: rgb(0, 0, 0); font-weight: bold;&quot;&gt;{ &lt;/span&gt;&lt;span style=&quot;color: rgb(0, 0, 0);&quot;&gt;onSubmitWord() &lt;/span&gt;&lt;span style=&quot;color: rgb(0, 0, 0); font-weight: bold;&quot;&gt;}&lt;/span&gt;&lt;/pre&gt;&lt;pre style=&quot;background-color: rgb(255, 255, 255); font-family: &amp;quot;JetBrains Mono&amp;quot;, monospace;&quot;&gt;&lt;pre style=&quot;color: rgb(0, 0, 0); font-family: &amp;quot;JetBrains Mono&amp;quot;, monospace;&quot;&gt;&lt;span style=&quot;color:#660e7a;font-weight:bold;&quot;&gt;binding&lt;/span&gt;.&lt;span style=&quot;color:#660e7a;font-weight:bold;&quot;&gt;skip&lt;/span&gt;.setOnClickListener &lt;span style=&quot;font-weight:bold;&quot;&gt;{ &lt;/span&gt;onSkipWord() &lt;span style=&quot;font-weight:bold;&quot;&gt;}&lt;/span&gt;&lt;/pre&gt;&lt;/pre&gt;" style="text;html=1;strokeColor=#006658;fillColor=none;align=left;verticalAlign=top;spacingLeft=4;spacingRight=4;whiteSpace=wrap;overflow=hidden;rotatable=0;points=[[0,0.5],[1,0.5]];portConstraint=eastwest;fontColor=#5C5C5C;dashed=1;" parent="78961159f06e98e8-30" vertex="1">
          <mxGeometry y="294" width="340" height="166" as="geometry" />
        </mxCell>
        <mxCell id="78961159f06e98e8-43" value="&lt;font color=&quot;#ff0000&quot;&gt;&lt;br&gt;лил░ л╗лЙл│лИл║ЛЃ лИл│ЛђЛІ&lt;br&gt;&lt;br&gt;GameViewModel&lt;/font&gt;" style="swimlane;html=1;fontStyle=1;align=center;verticalAlign=top;childLayout=stackLayout;horizontal=1;startSize=80;horizontalStack=0;resizeParent=1;resizeLast=0;collapsible=1;marginBottom=0;swimlaneFillColor=#ffffff;rounded=0;shadow=0;comic=0;labelBackgroundColor=none;strokeWidth=1;fillColor=#f8cecc;fontFamily=Verdana;fontSize=12;strokeColor=#b85450;" parent="1" vertex="1">
          <mxGeometry x="-90" y="270" width="410" height="368" as="geometry">
            <mxRectangle x="240" y="150" width="150" height="70" as="alternateBounds" />
          </mxGeometry>
        </mxCell>
        <mxCell id="78961159f06e98e8-44" value="ЛЂЛЄлхЛѓЛЄлИл║ ЛЂл╗лЙл▓&lt;br&gt;" style="text;html=1;strokeColor=none;fillColor=none;align=left;verticalAlign=top;spacingLeft=4;spacingRight=4;whiteSpace=wrap;overflow=hidden;rotatable=0;points=[[0,0.5],[1,0.5]];portConstraint=eastwest;fontColor=#5C5C5C;" parent="78961159f06e98e8-43" vertex="1">
          <mxGeometry y="80" width="410" height="26" as="geometry" />
        </mxCell>
        <mxCell id="78961159f06e98e8-45" value="ЛЂл┐лИЛЂлЙл║ ЛЂл╗лЙл▓" style="text;html=1;strokeColor=none;fillColor=none;align=left;verticalAlign=top;spacingLeft=4;spacingRight=4;whiteSpace=wrap;overflow=hidden;rotatable=0;points=[[0,0.5],[1,0.5]];portConstraint=eastwest;fontColor=#5C5C5C;" parent="78961159f06e98e8-43" vertex="1">
          <mxGeometry y="106" width="410" height="26" as="geometry" />
        </mxCell>
        <mxCell id="78961159f06e98e8-49" value="лил░л│л░л┤л░лйлйлЙлх Лѓлхл║ЛЃЛЅлхлх ЛЂл╗лЙл▓лЙ" style="text;html=1;strokeColor=none;fillColor=none;align=left;verticalAlign=top;spacingLeft=4;spacingRight=4;whiteSpace=wrap;overflow=hidden;rotatable=0;points=[[0,0.5],[1,0.5]];portConstraint=eastwest;fontColor=#5C5C5C;" parent="78961159f06e98e8-43" vertex="1">
          <mxGeometry y="132" width="410" height="26" as="geometry" />
        </mxCell>
        <mxCell id="78961159f06e98e8-50" value="лЙЛЄл║лИ" style="text;html=1;strokeColor=none;fillColor=none;align=left;verticalAlign=top;spacingLeft=4;spacingRight=4;whiteSpace=wrap;overflow=hidden;rotatable=0;points=[[0,0.5],[1,0.5]];portConstraint=eastwest;fontColor=#5C5C5C;" parent="78961159f06e98e8-43" vertex="1">
          <mxGeometry y="158" width="410" height="26" as="geometry" />
        </mxCell>
        <mxCell id="uO2hVA76GYjicHTjwSfB-31" value="ЛЂл╗лЙл▓лЙ, л║лЙЛѓлЙЛђлЙлх л┐лИЛѕлхЛѓ ЛЄлхл╗лЙл▓лхл║&lt;br&gt;&lt;pre style=&quot;box-sizing: inherit; background: var(--devsite-code-background,#f1f3f4); font-size: 14px; padding: 8px 80px 8px 8px; margin-top: 0px; margin-bottom: 0px; overflow: auto visible; position: relative; padding-block: var(--devsite-code-padding-block,24px); padding-inline: var(--devsite-code-padding-inline,24px); border-radius: 0px; text-size-adjust: none; direction: ltr !important;&quot; dir=&quot;ltr&quot; translate=&quot;no&quot; class=&quot;&quot;&gt;&lt;code style=&quot;box-sizing: inherit; background: 0px center transparent; font: 14px/20px var(--devsite-code-font-family); padding: 0px; border: var(--devsite-inline-nested-code-border,0); border-radius: 4px; word-break: normal; overflow: auto visible; direction: ltr !important;&quot; dir=&quot;ltr&quot;&gt;&lt;font color=&quot;#ff0000&quot;&gt;&lt;span style=&quot;box-sizing: inherit;&quot; class=&quot;kwd&quot;&gt;&lt;span style=&quot;box-sizing: inherit;&quot; class=&quot;kwd&quot;&gt;class&lt;/span&gt;&lt;/span&gt;&lt;span style=&quot;box-sizing: inherit;&quot; class=&quot;pln&quot;&gt;&lt;span style=&quot;box-sizing: inherit;&quot; class=&quot;pln&quot;&gt; &lt;/span&gt;&lt;/span&gt;&lt;span style=&quot;box-sizing: inherit;&quot; class=&quot;typ&quot;&gt;&lt;span style=&quot;box-sizing: inherit;&quot; class=&quot;typ&quot;&gt;GameViewModel&lt;/span&gt;&lt;/span&gt;&lt;span style=&quot;box-sizing: inherit;&quot; class=&quot;pln&quot;&gt;&lt;span style=&quot;box-sizing: inherit;&quot; class=&quot;pln&quot;&gt; &lt;/span&gt;&lt;/span&gt;&lt;span style=&quot;box-sizing: inherit;&quot; class=&quot;pun&quot;&gt;&lt;span style=&quot;box-sizing: inherit;&quot; class=&quot;pun&quot;&gt;:&lt;/span&gt;&lt;/span&gt;&lt;span style=&quot;box-sizing: inherit;&quot; class=&quot;pln&quot;&gt;&lt;span style=&quot;box-sizing: inherit;&quot; class=&quot;pln&quot;&gt; &lt;/span&gt;&lt;/span&gt;&lt;span style=&quot;box-sizing: inherit;&quot; class=&quot;typ&quot;&gt;&lt;span style=&quot;box-sizing: inherit;&quot; class=&quot;typ&quot;&gt;ViewModel&lt;/span&gt;&lt;/span&gt;&lt;span style=&quot;box-sizing: inherit;&quot; class=&quot;pun&quot;&gt;&lt;span style=&quot;box-sizing: inherit;&quot; class=&quot;pun&quot;&gt;()&lt;/span&gt;&lt;/span&gt;&lt;span style=&quot;box-sizing: inherit;&quot; class=&quot;pln&quot;&gt;&lt;span style=&quot;box-sizing: inherit;&quot; class=&quot;pln&quot;&gt; &lt;/span&gt;&lt;/span&gt;&lt;span style=&quot;box-sizing: inherit;&quot; class=&quot;pun&quot;&gt;&lt;span style=&quot;box-sizing: inherit;&quot; class=&quot;pun&quot;&gt;{&lt;/span&gt;&lt;/span&gt;&lt;span style=&quot;box-sizing: inherit;&quot; class=&quot;pln&quot;&gt;&lt;span style=&quot;box-sizing: inherit;&quot; class=&quot;pln&quot;&gt;&lt;br style=&quot;box-sizing: inherit;&quot;&gt;&lt;/span&gt;&lt;/span&gt;&lt;span style=&quot;box-sizing: inherit;&quot; class=&quot;pun&quot;&gt;&lt;span style=&quot;box-sizing: inherit;&quot; class=&quot;pun&quot;&gt;}&lt;/span&gt;&lt;/span&gt;&lt;/font&gt;&lt;/code&gt;&lt;/pre&gt;" style="text;html=1;strokeColor=none;fillColor=none;align=left;verticalAlign=top;spacingLeft=4;spacingRight=4;whiteSpace=wrap;overflow=hidden;rotatable=0;points=[[0,0.5],[1,0.5]];portConstraint=eastwest;fontColor=#5C5C5C;" parent="78961159f06e98e8-43" vertex="1">
          <mxGeometry y="184" width="410" height="126" as="geometry" />
        </mxCell>
        <mxCell id="78961159f06e98e8-51" value="" style="line;html=1;strokeWidth=1;fillColor=none;align=left;verticalAlign=middle;spacingTop=-1;spacingLeft=3;spacingRight=3;rotatable=0;labelPosition=right;points=[];portConstraint=eastwest;strokeColor=#006658;fontColor=#5C5C5C;" parent="78961159f06e98e8-43" vertex="1">
          <mxGeometry y="310" width="410" height="8" as="geometry" />
        </mxCell>
        <mxCell id="78961159f06e98e8-52" value="+ method(type): type" style="text;html=1;strokeColor=none;fillColor=none;align=left;verticalAlign=top;spacingLeft=4;spacingRight=4;whiteSpace=wrap;overflow=hidden;rotatable=0;points=[[0,0.5],[1,0.5]];portConstraint=eastwest;fontColor=#5C5C5C;" parent="78961159f06e98e8-43" vertex="1">
          <mxGeometry y="318" width="410" height="24" as="geometry" />
        </mxCell>
        <mxCell id="78961159f06e98e8-53" value="+ method(type): type" style="text;html=1;strokeColor=none;fillColor=none;align=left;verticalAlign=top;spacingLeft=4;spacingRight=4;whiteSpace=wrap;overflow=hidden;rotatable=0;points=[[0,0.5],[1,0.5]];portConstraint=eastwest;fontColor=#5C5C5C;" parent="78961159f06e98e8-43" vertex="1">
          <mxGeometry y="342" width="410" height="26" as="geometry" />
        </mxCell>
        <mxCell id="78961159f06e98e8-130" style="edgeStyle=elbowEdgeStyle;html=1;labelBackgroundColor=none;startFill=0;startSize=8;endArrow=diamondThin;endFill=0;endSize=16;fontFamily=Verdana;fontSize=12;elbow=vertical;strokeColor=#006658;fontColor=#5C5C5C;" parent="1" edge="1">
          <mxGeometry relative="1" as="geometry">
            <mxPoint x="550" y="617" as="sourcePoint" />
            <mxPoint x="520" y="617" as="targetPoint" />
          </mxGeometry>
        </mxCell>
        <mxCell id="uO2hVA76GYjicHTjwSfB-36" style="edgeStyle=orthogonalEdgeStyle;rounded=0;orthogonalLoop=1;jettySize=auto;html=1;exitX=0.5;exitY=0;exitDx=0;exitDy=0;entryX=0.5;entryY=0;entryDx=0;entryDy=0;strokeColor=#006658;fontColor=#00CC00;fillColor=#21C0A5;" parent="1" source="uO2hVA76GYjicHTjwSfB-10" target="uO2hVA76GYjicHTjwSfB-15" edge="1">
          <mxGeometry relative="1" as="geometry" />
        </mxCell>
        <mxCell id="uO2hVA76GYjicHTjwSfB-10" value="MainScreen" style="html=1;fillColor=default;labelPosition=center;verticalLabelPosition=top;align=center;verticalAlign=bottom;strokeColor=#006658;fontColor=#5C5C5C;" parent="1" vertex="1">
          <mxGeometry x="-80" y="90" width="170" height="130" as="geometry" />
        </mxCell>
        <mxCell id="uO2hVA76GYjicHTjwSfB-37" style="edgeStyle=orthogonalEdgeStyle;rounded=0;orthogonalLoop=1;jettySize=auto;html=1;exitX=0.5;exitY=1;exitDx=0;exitDy=0;entryX=0.5;entryY=1;entryDx=0;entryDy=0;strokeColor=#006658;fontColor=#00CC00;fillColor=#21C0A5;" parent="1" source="uO2hVA76GYjicHTjwSfB-15" target="uO2hVA76GYjicHTjwSfB-10" edge="1">
          <mxGeometry relative="1" as="geometry" />
        </mxCell>
        <mxCell id="uO2hVA76GYjicHTjwSfB-15" value="&lt;font color=&quot;#0000ff&quot;&gt;GameFragmentScreen&lt;/font&gt;" style="html=1;fillColor=none;strokeColor=#006658;fontColor=#5C5C5C;" parent="1" vertex="1">
          <mxGeometry x="-45" y="125" width="100" height="60" as="geometry" />
        </mxCell>
        <mxCell id="uO2hVA76GYjicHTjwSfB-29" value="&lt;pre style=&quot;background-color:#ffffff;color:#000000;font-family:&#39;JetBrains Mono&#39;,monospace;font-size:9,8pt;&quot;&gt;л┐ЛђлЙл┐ЛЃЛЂЛѓлИЛѓЛї =&amp;gt;&lt;/pre&gt;&lt;pre style=&quot;background-color: rgb(255, 255, 255); font-family: &amp;quot;JetBrains Mono&amp;quot;, monospace;&quot;&gt;&lt;font color=&quot;#00cc00&quot;&gt;л┐лЙл║л░лил░ЛѓЛї л║лЙлйлхЛє&lt;/font&gt;&lt;span style=&quot;color: rgb(0, 0, 0);&quot;&gt;, &lt;/span&gt;&lt;font color=&quot;#ff0000&quot;&gt;лхЛЂл╗лИ ЛЂл╗лЙл▓ л▒лЙл╗ЛїЛѕлх лйлхЛѓ&lt;/font&gt;&lt;/pre&gt;&lt;pre style=&quot;background-color: rgb(255, 255, 255); font-family: &amp;quot;JetBrains Mono&amp;quot;, monospace;&quot;&gt;&lt;font color=&quot;#ff0000&quot;&gt;л┐лЙл║л░лил░ЛѓЛї ЛЂл╗лхл┤ЛЃЛјЛЅлхлх ЛЂл╗лЙл▓лЙ &lt;/font&gt;&lt;font color=&quot;#00cc00&quot;&gt;+ лЙл▒лйлЙл▓лИЛѓЛї Лѓлхл║ЛЂЛѓлЙл▓лЙлх л┐лЙл╗лх&lt;/font&gt;&lt;/pre&gt;&lt;pre style=&quot;background-color:#ffffff;color:#000000;font-family:&#39;JetBrains Mono&#39;,monospace;font-size:9,8pt;&quot;&gt;&lt;span style=&quot;color:#000080;font-weight:bold;&quot;&gt;if &lt;/span&gt;(&lt;span style=&quot;color:#660e7a;font-weight:bold;&quot;&gt;viewModel&lt;/span&gt;.nextWord()) {&lt;br&gt;    setErrorTextField(&lt;span style=&quot;color:#000080;font-weight:bold;&quot;&gt;false&lt;/span&gt;)&lt;br&gt;    updateNextWordOnScreen()&lt;br&gt;} &lt;span style=&quot;color:#000080;font-weight:bold;&quot;&gt;else &lt;/span&gt;{&lt;br&gt;    showFinalScoreDialog()&lt;br&gt;}&lt;/pre&gt;" style="rounded=1;whiteSpace=wrap;html=1;dashed=1;strokeColor=#006658;fontColor=#5C5C5C;fillColor=#21C0A5;" parent="1" vertex="1">
          <mxGeometry x="360" y="470" width="320" height="180" as="geometry" />
        </mxCell>
        <mxCell id="uO2hVA76GYjicHTjwSfB-30" value="&lt;pre style=&quot;background-color: rgb(255, 255, 255); font-family: &amp;quot;JetBrains Mono&amp;quot;, monospace;&quot;&gt;&lt;span style=&quot;color: rgb(0, 0, 0);&quot;&gt;ЛЂл╗лхл┤ЛЃЛјЛЅлхлх ЛЂл╗лЙл▓лЙ =&amp;gt; &lt;/span&gt;&lt;font color=&quot;#00cc00&quot;&gt;лйлхЛѓ лЙЛѕлИл▒л║лИ&lt;/font&gt;&lt;span style=&quot;color: rgb(0, 0, 0);&quot;&gt;, &lt;/span&gt;&lt;font color=&quot;#ff0000&quot;&gt;лхЛЂл╗лИ ЛЂл╗лЙл▓лЙ л┐Лђл░л▓лИл╗ЛїлйлЙлх&lt;/font&gt;&lt;/pre&gt;&lt;pre style=&quot;background-color: rgb(255, 255, 255); font-family: &amp;quot;JetBrains Mono&amp;quot;, monospace;&quot;&gt;&lt;b style=&quot;&quot;&gt;&lt;font color=&quot;#00cc00&quot;&gt;л┐лЙл║л░лил░ЛѓЛї л║лЙлйлхЛє&lt;/font&gt;&lt;font color=&quot;#000080&quot;&gt;, &lt;/font&gt;&lt;font color=&quot;#ff0000&quot;&gt;лхЛЂл╗лИ ЛЂл╗лЙл▓ л▒лЙл╗ЛїЛѕлх лйлхЛѓ&lt;/font&gt;&lt;/b&gt;&lt;/pre&gt;&lt;pre style=&quot;background-color: rgb(255, 255, 255); font-family: &amp;quot;JetBrains Mono&amp;quot;, monospace;&quot;&gt;&lt;b style=&quot;&quot;&gt;&lt;font color=&quot;#ff0000&quot;&gt;л┐лЙл║л░лил░ЛѓЛї ЛЂл╗лхл┤ЛЃЛјЛЅлхлх ЛЂл╗лЙл▓лЙ &lt;/font&gt;&lt;/b&gt;&lt;font color=&quot;#00cc00&quot;&gt;+ лЙл▒лйлЙл▓лИЛѓЛї Лѓлхл║ЛЂЛѓлЙл▓лЙлх л┐лЙл╗лх&lt;/font&gt;&lt;/pre&gt;&lt;pre style=&quot;background-color:#ffffff;color:#000000;font-family:&#39;JetBrains Mono&#39;,monospace;font-size:9,8pt;&quot;&gt;&lt;span style=&quot;color:#000080;font-weight:bold;&quot;&gt;val &lt;/span&gt;playerWord = &lt;span style=&quot;color:#660e7a;font-weight:bold;&quot;&gt;binding&lt;/span&gt;.&lt;span style=&quot;color:#660e7a;font-weight:bold;&quot;&gt;textInputEditText&lt;/span&gt;.&lt;span style=&quot;color:#660e7a;font-style:italic;&quot;&gt;text&lt;/span&gt;.&lt;span style=&quot;font-style:italic;&quot;&gt;toString&lt;/span&gt;()&lt;br&gt;&lt;br&gt;&lt;span style=&quot;color:#000080;font-weight:bold;&quot;&gt;if &lt;/span&gt;(&lt;span style=&quot;color:#660e7a;font-weight:bold;&quot;&gt;viewModel&lt;/span&gt;.isUserWordCorrect(playerWord)) {&lt;br&gt;    setErrorTextField(&lt;span style=&quot;color:#000080;font-weight:bold;&quot;&gt;false&lt;/span&gt;)&lt;br&gt;    &lt;span style=&quot;color:#000080;font-weight:bold;&quot;&gt;if &lt;/span&gt;(&lt;span style=&quot;color:#660e7a;font-weight:bold;&quot;&gt;viewModel&lt;/span&gt;.nextWord()) {&lt;br&gt;        updateNextWordOnScreen()&lt;br&gt;    } &lt;span style=&quot;color:#000080;font-weight:bold;&quot;&gt;else &lt;/span&gt;{&lt;br&gt;        showFinalScoreDialog()&lt;br&gt;    }&lt;br&gt;} &lt;span style=&quot;color:#000080;font-weight:bold;&quot;&gt;else &lt;/span&gt;{&lt;br&gt;    setErrorTextField(&lt;span style=&quot;color:#000080;font-weight:bold;&quot;&gt;true&lt;/span&gt;)&lt;br&gt;}&lt;/pre&gt;" style="rounded=1;whiteSpace=wrap;html=1;dashed=1;strokeColor=#006658;fontColor=#5C5C5C;fillColor=#21C0A5;" parent="1" vertex="1">
          <mxGeometry x="700" y="390" width="390" height="320" as="geometry" />
        </mxCell>
        <mxCell id="uO2hVA76GYjicHTjwSfB-28" value="" style="shape=flexArrow;endArrow=classic;html=1;rounded=0;strokeColor=#006658;fontColor=#5C5C5C;fillColor=#21C0A5;entryX=0.5;entryY=0;entryDx=0;entryDy=0;" parent="1" source="78961159f06e98e8-40" target="uO2hVA76GYjicHTjwSfB-30" edge="1">
          <mxGeometry width="50" height="50" relative="1" as="geometry">
            <mxPoint x="810" y="380" as="sourcePoint" />
            <mxPoint x="900" y="450" as="targetPoint" />
          </mxGeometry>
        </mxCell>
        <mxCell id="uO2hVA76GYjicHTjwSfB-33" value="" style="shape=flexArrow;endArrow=classic;html=1;rounded=0;strokeColor=#006658;fontColor=#5C5C5C;fillColor=#21C0A5;exitX=0.236;exitY=1.008;exitDx=0;exitDy=0;exitPerimeter=0;entryX=0.469;entryY=0;entryDx=0;entryDy=0;entryPerimeter=0;" parent="1" source="78961159f06e98e8-40" target="uO2hVA76GYjicHTjwSfB-29" edge="1">
          <mxGeometry width="50" height="50" relative="1" as="geometry">
            <mxPoint x="680" y="350" as="sourcePoint" />
            <mxPoint x="730" y="300" as="targetPoint" />
          </mxGeometry>
        </mxCell>
        <mxCell id="GKDgonfJUsGMYwUG_WZu-1" value="&#xa;&lt;code style=&quot;box-sizing: inherit; background: rgb(255, 255, 255); color: var(--devsite-code-color); font-style: normal; font-variant-ligatures: normal; font-variant-caps: normal; padding: 0.1em 0.3em; text-align: left; border: 0px; border-radius: 4px; word-break: normal; -webkit-font-smoothing: auto; overflow: auto visible; letter-spacing: normal; orphans: 2; text-indent: 0px; text-transform: none; widows: 2; word-spacing: 0px; -webkit-text-stroke-width: 0px; text-decoration-thickness: initial; text-decoration-style: initial; text-decoration-color: initial; direction: ltr !important;&quot; dir=&quot;ltr&quot; translate=&quot;no&quot;&gt;ViewModel&lt;/code&gt;&lt;font style=&quot;box-sizing: inherit; color: rgb(92, 92, 92); font-family: Roboto, &amp;quot;Noto Sans&amp;quot;, &amp;quot;Noto Sans JP&amp;quot;, &amp;quot;Noto Sans KR&amp;quot;, &amp;quot;Noto Naskh Arabic&amp;quot;, &amp;quot;Noto Sans Thai&amp;quot;, &amp;quot;Noto Sans Hebrew&amp;quot;, &amp;quot;Noto Sans Bengali&amp;quot;, sans-serif; font-size: 14px; font-style: normal; font-variant-ligatures: normal; font-variant-caps: normal; font-weight: 400; letter-spacing: normal; orphans: 2; text-align: left; text-indent: 0px; text-transform: none; widows: 2; word-spacing: 0px; -webkit-text-stroke-width: 0px; background-color: rgb(255, 255, 255); text-decoration-thickness: initial; text-decoration-style: initial; text-decoration-color: initial; vertical-align: inherit;&quot;&gt;&lt;font style=&quot;box-sizing: inherit; vertical-align: inherit;&quot;&gt;лЙЛѓл▓лхЛЄл░лхЛѓ лил░ ЛЁЛђл░лйлхлйлИлх лИ лЙл▒Лђл░л▒лЙЛѓл║ЛЃ л▓ЛЂлхЛЁ л┤л░лйлйЛІЛЁ, лйлхлЙл▒ЛЁлЙл┤лИл╝ЛІЛЁ л┤л╗ЛЈ л┐лЙл╗ЛїлилЙл▓л░Лѓлхл╗ЛїЛЂл║лЙл│лЙ лИлйЛѓлхЛђЛёлхл╣ЛЂл░.&lt;span&gt;&amp;nbsp;&lt;/span&gt;&lt;/font&gt;&lt;font style=&quot;box-sizing: inherit; vertical-align: inherit;&quot;&gt;лълй лйлИл║лЙл│л┤л░ лйлх л┤лЙл╗лХлхлй лЙл▒Лђл░ЛЅл░ЛѓЛїЛЂЛЈ л║ лИлхЛђл░ЛђЛЁлИлИ л▓л░Лѕлхл│лЙ л┐Лђлхл┤ЛЂЛѓл░л▓л╗лхлйлИЛЈ (лйл░л┐ЛђлИл╝лхЛђ, л║ лЙл▒Лілхл║ЛѓЛЃ л┐ЛђлИл▓ЛЈлил║лИ л┐Лђлхл┤ЛЂЛѓл░л▓л╗лхлйлИЛЈ) лИл╗лИ ЛЂлЙл┤лхЛђлХл░ЛѓЛї ЛЂЛЂЛІл╗л║ЛЃ лйл░ л┤лхл╣ЛЂЛѓл▓лИлх лИл╗лИ ЛёЛђл░л│л╝лхлйЛѓ.&lt;/font&gt;&lt;/font&gt;&#xa;&#xa;" style="rounded=0;whiteSpace=wrap;html=1;" vertex="1" parent="1">
          <mxGeometry x="40" y="-198" width="430" height="108" as="geometry" />
        </mxCell>
        <mxCell id="GKDgonfJUsGMYwUG_WZu-2" value="" style="shape=image;verticalLabelPosition=bottom;labelBackgroundColor=default;verticalAlign=top;aspect=fixed;imageAspect=0;image=https://developer.android.com/static/codelabs/basic-android-kotlin-training-viewmodel/img/53dd5e42f23ffba9.png;" vertex="1" parent="1">
          <mxGeometry x="-50" y="-425" width="520" height="222" as="geometry" />
        </mxCell>
      </root>
    </mxGraphModel>
  </diagram>
</mxfile>
